<?xml version="1.0" encoding="UTF-8"?>
<svg width="1286px" height="243px" viewBox="0 0 1286 243" version="1.1" xmlns="http://www.w3.org/2000/svg" xmlns:xlink="http://www.w3.org/1999/xlink">
    <!-- Generator: Sketch 49 (51002) - http://www.bohemiancoding.com/sketch -->
    <title>Group 31</title>
    <desc>Created with Sketch.</desc>
    <defs></defs>
    <g id="Page-1" stroke="none" stroke-width="1" fill="none" fill-rule="evenodd">
        <g id="Group-32" transform="translate(-417.000000, -98.000000)" fill-rule="nonzero">
            <g id="Group-31" transform="translate(417.000000, 98.000000)">
                <path d="M164.96651,103.354915 C195.983988,77.7308327 259.791371,-13.8515359 160.092335,2.28214561 C116.667865,8.92542623 52.8604817,51.1577102 40.0103836,99.5587547 C33.3062512,86.6161374 25.9087876,74.0995471 17.8550421,62.0716712 C5.89115768,45.4634696 -7.84515405,58.2755108 5.44805085,75.3582324 C43.1121314,124.233797 69.2554344,183.074283 69.2554344,242.389288 C72.3571822,212.969045 67.483007,176.905522 55.9622295,141.791039 C61.7226183,143.689119 67.9261139,144.638159 73.6865027,144.638159 C94.0694168,177.854562 125.086895,206.325765 160.092335,219.612326 C191.996026,232.424367 234.534282,224.832046 217.253116,173.583882 C207.947872,145.587199 186.235637,120.912157 164.96651,103.354915 Z M169.397578,14.1451467 C224.785932,7.97638614 165.409616,76.7817926 145.912916,89.5938338 C127.745536,77.7308327 105.147088,67.2913917 82.9917461,70.138512 C98.943592,49.73415 137.493886,17.9413071 169.397578,14.1451467 Z M82.5486393,85.3231534 C97.6142715,83.8995932 114.009224,92.440954 126.416215,100.982315 C114.452331,107.151075 101.159126,110.947236 87.4228144,111.896276 C67.0399002,111.896276 63.0519387,87.2212335 82.5486393,85.3231534 Z M159.206121,192.564683 C133.062818,184.972363 108.691942,164.093481 90.967669,142.740079 C105.590194,139.892958 119.769613,134.198718 133.062818,126.131877 C137.936993,123.759277 142.811168,120.437637 147.242236,117.115996 C162.750975,131.351598 178.702821,150.332399 184.906317,171.685801 C191.109813,194.937284 174.271753,196.835364 159.206121,192.564683 Z" id="Shape" fill="#F5A623"></path>
                <g id="flutterwave" transform="translate(296.324896, 38.912798)" fill="#000000">
                    <path d="M80.8642583,6.44403603 L5.02262474,6.44403603 C2.51131237,6.44403603 0.502262474,8.59204803 0.502262474,11.277063 L0,11.277063 L0,129.954727 C0,132.639742 2.0090499,134.787754 4.52036227,134.787754 C7.03167464,134.787754 9.04072453,132.639742 9.54298701,129.954727 L9.54298701,76.2544263 L73.8325837,76.2544263 C76.343896,76.2544263 77.8506835,74.1064143 77.8506835,71.9584023 C77.8506835,69.2733873 75.8416336,67.6623783 73.8325837,67.6623783 L9.04072453,67.6623783 L9.04072453,15.5730871 L80.8642583,15.5730871 C83.3755707,15.5730871 84.8823581,13.4250751 84.8823581,11.277063 C84.8823581,9.84505504 83.5429915,8.23404603 80.8642583,6.44403603 Z M115.520372,0 L115.018109,0 C113.009059,0 111.502272,2.14801201 111.502272,4.29602402 L111.502272,129.417724 C111.502272,132.102739 113.511322,133.713748 115.520372,133.713748 C118.031684,133.713748 119.538472,131.565736 119.538472,129.417724 L119.538472,4.83302702 C119.538472,2.14801201 118.031684,0 115.520372,0 Z M225.013593,45.1082522 C225.013593,42.4232372 223.004543,40.8122282 220.995494,40.8122282 C218.484181,40.8122282 216.977394,42.9602402 216.977394,45.1082522 L216.977394,97.1975434 C216.977394,114.918642 203.416307,128.880721 186.841645,128.343718 C169.262458,128.343718 159.217208,115.992648 159.217208,96.6605404 L159.217208,45.1082522 C159.217208,42.4232372 157.208158,40.8122282 155.199108,40.8122282 C153.190058,40.8122282 151.181008,42.9602402 151.181008,45.1082522 L151.181008,98.2715494 C151.181008,120.288672 164.239833,136.398763 185.83712,136.398763 C198.895944,136.935766 211.452506,129.417724 217.479656,117.066654 L217.479656,130.49173 C217.479656,133.176745 219.488706,134.787754 221.497756,134.787754 C224.009068,134.787754 225.515856,132.639742 225.515856,130.49173 L225.013593,130.49173 L225.013593,45.1082522 Z M297.339391,49.4042762 C299.348441,49.4042762 301.357491,47.7932672 301.357491,45.6452552 C301.357491,43.4972432 299.348441,41.3492312 297.339391,41.3492312 L269.714955,41.3492312 L269.714955,15.5730871 C269.714955,13.4250751 267.705905,11.277063 265.696855,11.277063 L265.194592,11.277063 C263.185542,11.277063 261.678755,13.4250751 261.678755,15.5730871 L261.678755,41.3492312 L252.135768,41.3492312 C250.126718,41.3492312 248.117668,42.9602402 248.117668,45.1082522 C248.117668,47.2562642 250.126718,49.4042762 252.135768,49.4042762 L261.678755,49.4042762 L261.678755,110.085615 C261.678755,127.269712 272.72853,135.324757 285.787354,135.324757 C289.805454,135.324757 294.325816,134.787754 298.343916,133.176745 C299.850704,132.639742 300.855229,131.028733 300.855229,129.417724 C300.855229,127.269712 299.348441,125.658702 297.339391,125.658702 C294.325816,126.732709 290.809979,127.269712 287.294142,127.269712 C276.746629,127.269712 269.714955,122.436684 269.714955,109.011609 L269.714955,49.4042762 L297.339391,49.4042762 Z M365.647089,49.4042762 C367.656139,49.4042762 369.665189,47.7932672 369.665189,45.6452552 C369.665189,43.4972432 367.656139,41.3492312 365.647089,41.3492312 L338.022653,41.3492312 L338.022653,15.5730871 C338.022653,13.4250751 336.013603,11.277063 334.004553,11.277063 L333.50229,11.277063 C331.49324,11.277063 329.986453,13.4250751 329.986453,15.5730871 L329.986453,41.3492312 L320.443466,41.3492312 C318.434416,41.3492312 316.425366,42.9602402 316.425366,45.1082522 C316.425366,47.2562642 318.434416,49.4042762 320.443466,49.4042762 L329.986453,49.4042762 L329.986453,110.085615 C329.986453,127.269712 341.036228,135.324757 354.095052,135.324757 C358.113152,135.324757 362.633514,134.787754 366.651614,133.176745 C368.158402,132.639742 369.162927,131.028733 369.162927,129.417724 C369.162927,127.269712 367.656139,125.658702 365.647089,125.658702 C362.633514,126.732709 359.117677,127.269712 355.60184,127.269712 C345.054327,127.269712 338.022653,122.436684 338.022653,109.011609 L338.022653,49.4042762 L365.647089,49.4042762 Z M425.918588,38.6642162 C402.312251,38.6642162 384.733064,60.1443362 384.733064,87.5314893 L384.733064,88.0684923 C384.733064,117.603657 404.321301,136.935766 427.425375,136.935766 C439.981937,137.472769 452.538499,132.102739 461.076961,121.899681 C462.081486,120.825675 462.583749,119.751669 462.583749,118.677663 C462.583749,116.529651 460.574699,114.381639 458.565649,114.381639 C457.561124,114.381639 456.556599,114.918642 456.054337,115.455645 C449.022662,123.51069 438.47515,128.343718 427.927637,128.343718 C410.850713,128.343718 395.280576,114.918642 393.773788,91.8275134 L462.081486,91.8275134 C464.090536,91.8275134 466.099586,89.6795014 466.099586,87.5314893 C466.099586,60.1443362 450.529449,38.6642162 425.918588,38.6642162 Z M393.271526,83.2354653 C394.778313,62.8293512 408.339401,47.2562642 425.416325,47.2562642 C445.004562,47.2562642 455.552074,64.4403603 456.556599,83.2354653 L393.271526,83.2354653 Z M533.402759,40.2752252 C517.832622,41.3492312 504.271535,52.6262942 498.746648,68.1993813 L498.746648,45.6452552 C498.746648,43.4972432 496.737598,41.3492312 494.728548,41.3492312 C492.217236,41.3492312 490.710448,42.9602402 490.208186,45.6452552 L490.208186,131.565736 C490.208186,133.713748 492.217236,135.86176 494.226286,135.86176 C496.737598,135.86176 498.244385,134.250751 498.746648,131.565736 L498.746648,97.1975434 C498.746648,67.1253753 514.819047,52.6262942 533.402759,50.4782822 L533.905022,50.4782822 C536.416334,50.4782822 537.923122,47.7932672 537.923122,45.6452552 C537.923122,42.4232372 535.914072,40.2752252 533.402759,40.2752252 Z" id="Shape"></path>
                    <path d="M681.692745,35.3244109 C675.656273,35.3244109 670.62588,39.6082373 669.116762,46.033977 L654.528622,95.8334592 L639.940482,46.033977 C638.431364,39.6082373 632.897932,34.7889326 626.35842,34.7889326 L624.849303,34.7889326 C618.309792,34.7889326 612.776359,39.072759 611.267241,46.033977 L596.679101,95.2979809 L582.594,45.4984987 C581.084882,39.6082373 576.054489,34.7889326 570.018018,34.7889326 L569.514978,34.7889326 C562.975467,34.7889326 557.945074,40.6791939 557.945074,47.6404119 C557.945074,49.7823251 558.448113,51.9242383 558.951153,54.0661515 L581.587922,123.142853 C583.09704,130.104071 588.630472,134.923375 595.673023,135.458854 L596.679101,135.458854 C603.218612,135.458854 608.752045,130.639549 610.764202,123.678331 L625.352342,74.414327 L639.940482,123.678331 C641.4496,130.639549 647.486072,135.458854 654.025583,135.458854 L655.031661,135.458854 C662.074212,135.458854 668.110683,130.639549 669.619801,123.142853 L692.25657,53.5306732 C692.75961,51.9242383 693.262649,49.7823251 693.262649,48.1758902 L693.262649,47.6404119 C693.262649,40.6791939 688.232256,35.3244109 681.692745,35.3244109 Z M746.081777,35.3244109 C736.02099,34.7889326 726.463243,36.9308458 716.905497,40.1437156 C712.881182,41.7501505 710.365985,46.033977 710.365985,50.8532817 C710.365985,57.2790213 715.396379,62.0983261 721.43285,61.5628478 C722.438929,61.5628478 723.948047,61.5628478 724.954125,61.0273695 C730.990597,58.8854562 737.027069,58.3499779 743.063541,58.3499779 C756.142563,58.3499779 762.682074,64.2402393 762.682074,76.020762 L762.682074,77.6271969 C755.639523,74.9498053 748.093934,73.8788487 740.548344,73.8788487 C718.917654,73.8788487 703.826474,84.0529365 703.826474,105.472069 C703.826474,124.749288 718.414614,135.458854 735.014912,135.458854 C745.578737,135.994332 755.639523,131.175027 762.682074,123.142853 C763.185113,130.104071 768.718546,134.923375 775.258057,134.923375 C782.300607,134.923375 787.834039,129.033114 787.834039,121.536418 L787.834039,77.6271969 C788.337079,66.3821525 784.815804,55.1371081 777.773253,46.5694553 C770.227664,39.6082373 760.166877,35.3244109 746.081777,35.3244109 Z M763.185113,99.046329 C763.185113,109.755895 754.633445,116.181635 742.560501,115.646156 C734.511872,115.646156 728.475401,111.36233 728.475401,103.865634 L728.475401,103.330155 C728.475401,95.2979809 735.517951,89.9431978 746.584816,89.9431978 C752.118248,89.9431978 758.15472,91.5496328 763.185113,93.691546 L763.185113,99.046329 Z M877.375037,34.7889326 C871.841604,34.7889326 866.811211,38.5372807 865.302093,44.427542 L845.180521,101.188242 L825.561988,44.9630203 C824.05287,39.072759 819.022477,34.7889326 812.986005,34.7889326 C806.446494,34.7889326 800.913061,40.1437156 800.410022,47.6404119 C800.410022,49.7823251 800.913061,51.9242383 801.91914,54.0661515 L830.089342,123.142853 C832.101499,130.104071 837.634931,134.923375 844.677482,135.458854 L846.1866,135.458854 C852.726111,134.923375 858.762582,130.639549 861.277779,123.678331 L888.441902,54.6016298 C889.44798,52.4597166 889.95102,50.3178034 889.95102,48.1758902 L889.95102,47.6404119 C889.95102,40.6791939 884.417587,34.7889326 877.375037,34.7889326 Z M945.285344,34.2534543 C918.62426,34.2534543 900.011806,57.2790213 900.011806,85.1238931 L900.011806,89.4077195 C901.017884,116.181635 922.648575,137.065289 947.80054,135.458854 C959.370445,135.458854 970.437309,131.710506 979.492017,123.678331 C982.007214,121.536418 983.013292,118.859026 983.013292,115.646156 L983.013292,115.110678 C983.013292,109.220417 978.485938,104.401112 972.952506,104.401112 C970.940349,104.401112 968.425152,104.93659 966.916034,106.543025 C961.382602,110.826852 954.843091,113.504243 948.30358,112.968765 C937.236715,113.504243 927.678968,105.472069 926.16985,93.691546 L977.982899,93.691546 C984.52241,93.1560677 989.552803,87.2658063 989.049764,80.3045884 L989.049764,78.1626752 C989.049764,54.0661515 969.431231,33.717976 945.285344,34.2534543 Z M925.666811,77.6271969 C927.678968,64.7757176 934.721518,56.743543 945.285344,56.743543 C955.849169,56.743543 962.89172,65.3111959 964.400838,77.6271969 L925.666811,77.6271969 Z" id="wave" stroke="#000000" stroke-width="0.75"></path>
                </g>
            </g>
        </g>
    </g>
</svg>